<svg xmlns="http://www.w3.org/2000/svg" xmlns:xlink="http://www.w3.org/1999/xlink" width="800" zoomAndPan="magnify" viewBox="0 0 600 299.999988" height="400" preserveAspectRatio="xMidYMid meet" version="1.2"><defs><clipPath id="0471fe0f9b"><path d="M 317 14 L 477 14 L 477 175 L 317 175 Z M 317 14 "/></clipPath><clipPath id="6022855dd1"><path d="M 317.851562 72.652344 L 416.894531 14.703125 L 476.355469 116.335938 L 377.3125 174.285156 Z M 317.851562 72.652344 "/></clipPath><clipPath id="78efd97872"><path d="M 74 44 L 97 44 L 97 76 L 74 76 Z M 74 44 "/></clipPath><clipPath id="d63cadb7f9"><path d="M 0.851562 58.652344 L 99.894531 0.703125 L 159.355469 102.335938 L 60.3125 160.285156 Z M 0.851562 58.652344 "/></clipPath><clipPath id="fd0f892e9e"><path d="M 99.730469 0.796875 L 0.6875 58.746094 L 60.152344 160.378906 L 159.195312 102.429688 Z M 99.730469 0.796875 "/></clipPath><clipPath id="2493789efc"><path d="M 54 77 L 89 77 L 89 155 L 54 155 Z M 54 77 "/></clipPath><clipPath id="1fbfa598ec"><path d="M 0.851562 58.652344 L 99.894531 0.703125 L 159.355469 102.335938 L 60.3125 160.285156 Z M 0.851562 58.652344 "/></clipPath><clipPath id="1de6b4653f"><path d="M 99.730469 0.796875 L 0.6875 58.746094 L 60.152344 160.378906 L 159.195312 102.429688 Z M 99.730469 0.796875 "/></clipPath><clipPath id="e961113be7"><path d="M 97 26 L 122 26 L 122 51 L 97 51 Z M 97 26 "/></clipPath><clipPath id="29b70bda0e"><path d="M 0.851562 58.652344 L 99.894531 0.703125 L 159.355469 102.335938 L 60.3125 160.285156 Z M 0.851562 58.652344 "/></clipPath><clipPath id="6e7a93eabb"><path d="M 99.730469 0.796875 L 0.6875 58.746094 L 60.152344 160.378906 L 159.195312 102.429688 Z M 99.730469 0.796875 "/></clipPath><clipPath id="3d71d65ab6"><path d="M 51 18 L 85 18 L 85 53 L 51 53 Z M 51 18 "/></clipPath><clipPath id="a454dba02f"><path d="M 0.851562 58.652344 L 99.894531 0.703125 L 159.355469 102.335938 L 60.3125 160.285156 Z M 0.851562 58.652344 "/></clipPath><clipPath id="8d2d24b4ac"><path d="M 99.730469 0.796875 L 0.6875 58.746094 L 60.152344 160.378906 L 159.195312 102.429688 Z M 99.730469 0.796875 "/></clipPath><clipPath id="9bb02a1058"><path d="M 51 55 L 70 55 L 70 74 L 51 74 Z M 51 55 "/></clipPath><clipPath id="31f87805cc"><path d="M 0.851562 58.652344 L 99.894531 0.703125 L 159.355469 102.335938 L 60.3125 160.285156 Z M 0.851562 58.652344 "/></clipPath><clipPath id="6fa092242e"><path d="M 99.730469 0.796875 L 0.6875 58.746094 L 60.152344 160.378906 L 159.195312 102.429688 Z M 99.730469 0.796875 "/></clipPath><clipPath id="7f3bf229ef"><rect x="0" width="160" y="0" height="161"/></clipPath><clipPath id="9e2ac8920d"><rect x="0" width="447" y="0" height="99"/></clipPath><clipPath id="169578c5a9"><path d="M 49 132.070312 L 148 132.070312 L 148 196 L 49 196 Z M 49 132.070312 "/></clipPath><clipPath id="5105b419eb"><path d="M 0.441406 0.0703125 L 98.839844 0.0703125 L 98.839844 63.839844 L 0.441406 63.839844 Z M 0.441406 0.0703125 "/></clipPath><clipPath id="78b714740b"><rect x="0" width="99" y="0" height="64"/></clipPath><clipPath id="6e1ff9fbe3"><path d="M 368 161 L 389 161 L 389 173 L 368 173 Z M 368 161 "/></clipPath><clipPath id="3f0937ba7d"><path d="M 369.519531 160.667969 L 388.824219 166.773438 L 386.566406 173.925781 L 367.257812 167.820312 Z M 369.519531 160.667969 "/></clipPath><clipPath id="1eb3f48ba5"><path d="M 369.519531 160.667969 L 388.824219 166.773438 L 386.566406 173.925781 L 367.257812 167.820312 Z M 369.519531 160.667969 "/></clipPath><clipPath id="fd3c4b40f3"><rect x="0" width="405" y="0" height="41"/></clipPath><clipPath id="2442ad6c45"><path d="M 371 152 L 392 152 L 392 164 L 371 164 Z M 371 152 "/></clipPath><clipPath id="f4a4865381"><path d="M 372.613281 151.113281 L 391.917969 157.21875 L 389.65625 164.367188 L 370.351562 158.265625 Z M 372.613281 151.113281 "/></clipPath><clipPath id="72419af9e2"><path d="M 372.613281 151.113281 L 391.917969 157.21875 L 389.65625 164.367188 L 370.351562 158.265625 Z M 372.613281 151.113281 "/></clipPath><clipPath id="5fe13cb35c"><path d="M 1 1 L 58.722656 1 L 58.722656 53.171875 L 1 53.171875 Z M 1 1 "/></clipPath><clipPath id="3c6b2c53f4"><path d="M 7.753906 7.46875 L 23.292969 7.46875 L 23.292969 23 L 7.753906 23 Z M 7.753906 7.46875 "/></clipPath><clipPath id="4890ad1608"><path d="M 29.367188 21 L 51.566406 21 L 51.566406 25 L 29.367188 25 Z M 29.367188 21 "/></clipPath><clipPath id="96dca0fe09"><path d="M 29.367188 27 L 51.566406 27 L 51.566406 30.449219 L 29.367188 30.449219 Z M 29.367188 27 "/></clipPath><clipPath id="045f180787"><path d="M 29.367188 14.910156 L 51.566406 14.910156 L 51.566406 18 L 29.367188 18 Z M 29.367188 14.910156 "/></clipPath><clipPath id="a4301c86bd"><rect x="0" width="60" y="0" height="54"/></clipPath></defs><g id="53102ffffb"><g clip-rule="nonzero" clip-path="url(#0471fe0f9b)"><g clip-rule="nonzero" clip-path="url(#6022855dd1)"><g transform="matrix(1,0,0,1,317,14)"><g clip-path="url(#7f3bf229ef)"><g clip-rule="nonzero" clip-path="url(#78efd97872)"><g clip-rule="nonzero" clip-path="url(#d63cadb7f9)"><g clip-rule="nonzero" clip-path="url(#fd0f892e9e)"><path style=" stroke:none;fill-rule:nonzero;fill:#cb6ce6;fill-opacity:1;" d="M 82.824219 72.671875 C 82.707031 72.640625 82.589844 72.613281 82.472656 72.582031 C 78.699219 71.621094 74.9375 71.089844 74.714844 71.914062 L 81.273438 46.867188 C 81.71875 45.164062 83.71875 44.214844 85.738281 44.742188 L 93.96875 46.898438 C 95.988281 47.425781 97.265625 49.238281 96.820312 50.9375 L 90.265625 75.976562 C 90.390625 75.464844 89.050781 74.730469 87.121094 74.007812 C 85.863281 73.539062 84.355469 73.074219 82.824219 72.671875 Z M 82.824219 72.671875 "/></g></g></g><g clip-rule="nonzero" clip-path="url(#2493789efc)"><g clip-rule="nonzero" clip-path="url(#1fbfa598ec)"><g clip-rule="nonzero" clip-path="url(#1de6b4653f)"><path style=" stroke:none;fill-rule:nonzero;fill:#cb6ce6;fill-opacity:1;" d="M 73.070312 78.199219 C 73.285156 77.386719 76.953125 77.894531 80.671875 78.832031 L 80.675781 78.808594 L 81.03125 78.898438 C 84.90625 79.914062 88.675781 81.351562 88.46875 82.203125 L 69.5625 154.4375 C 66.988281 154.066406 64.453125 153.515625 61.957031 152.796875 L 61.949219 152.820312 C 61.949219 152.820312 56.722656 151.089844 54.28125 149.980469 Z M 73.070312 78.199219 "/></g></g></g><g clip-rule="nonzero" clip-path="url(#e961113be7)"><g clip-rule="nonzero" clip-path="url(#29b70bda0e)"><g clip-rule="nonzero" clip-path="url(#6e7a93eabb)"><path style=" stroke:none;fill-rule:nonzero;fill:#cb6ce6;fill-opacity:1;" d="M 97.359375 39.371094 C 97.359375 39.371094 104.953125 37.316406 106.226562 35.820312 C 107.496094 34.320312 108.289062 26.492188 108.289062 26.492188 C 108.289062 26.492188 110.339844 34.089844 111.839844 35.363281 C 113.339844 36.636719 121.167969 37.425781 121.167969 37.425781 C 121.167969 37.425781 113.4375 39.636719 112.300781 40.976562 C 111.160156 42.320312 110.234375 50.304688 110.234375 50.304688 C 110.234375 50.304688 108.023438 42.574219 106.640625 41.394531 C 105.25 40.222656 97.359375 39.371094 97.359375 39.371094 Z M 97.359375 39.371094 "/></g></g></g><g clip-rule="nonzero" clip-path="url(#3d71d65ab6)"><g clip-rule="nonzero" clip-path="url(#a454dba02f)"><g clip-rule="nonzero" clip-path="url(#8d2d24b4ac)"><path style=" stroke:none;fill-rule:nonzero;fill:#cb6ce6;fill-opacity:1;" d="M 71.675781 39.90625 C 69.777344 41.609375 67.09375 52.414062 67.09375 52.414062 C 67.09375 52.414062 65.6875 41.46875 63.851562 39.417969 C 62.007812 37.363281 51.289062 34.773438 51.289062 34.773438 C 51.289062 34.773438 62.230469 33.371094 64.28125 31.53125 C 66.335938 29.691406 68.925781 18.96875 68.925781 18.96875 C 68.925781 18.96875 70.527344 30.125 72.171875 31.964844 C 73.816406 33.800781 84.730469 36.609375 84.730469 36.609375 C 84.730469 36.609375 73.574219 38.207031 71.675781 39.90625 Z M 71.675781 39.90625 "/></g></g></g><g clip-rule="nonzero" clip-path="url(#9bb02a1058)"><g clip-rule="nonzero" clip-path="url(#31f87805cc)"><g clip-rule="nonzero" clip-path="url(#6fa092242e)"><path style=" stroke:none;fill-rule:nonzero;fill:#cb6ce6;fill-opacity:1;" d="M 69.53125 65.078125 C 69.53125 65.078125 63.632812 66.058594 62.648438 66.984375 C 61.660156 67.910156 60.367188 73.667969 60.367188 73.667969 C 60.367188 73.667969 59.492188 67.886719 58.492188 66.820312 C 57.492188 65.753906 51.773438 64.507812 51.773438 64.507812 C 51.773438 64.507812 57.558594 63.632812 58.628906 62.632812 C 59.695312 61.632812 60.9375 55.914062 60.9375 55.914062 C 60.9375 55.914062 61.917969 61.8125 62.8125 62.765625 C 63.707031 63.71875 69.53125 65.078125 69.53125 65.078125 Z M 69.53125 65.078125 "/></g></g></g></g></g></g></g><g transform="matrix(1,0,0,1,76,154)"><g clip-path="url(#9e2ac8920d)"><g style="fill:#000000;fill-opacity:1;"><g transform="translate(0.920815, 70.850682)"><path style="stroke:none" d="M 38.828125 -13.234375 C 41.054688 -13.234375 43.222656 -13.566406 45.328125 -14.234375 C 47.429688 -14.910156 48.972656 -15.5625 49.953125 -16.1875 L 51.4375 -17.203125 L 57.65625 -4.75 C 57.445312 -4.59375 57.160156 -4.382812 56.796875 -4.125 C 56.441406 -3.863281 55.601562 -3.382812 54.28125 -2.6875 C 52.957031 -1.988281 51.539062 -1.378906 50.03125 -0.859375 C 48.53125 -0.335938 46.5625 0.128906 44.125 0.546875 C 41.6875 0.960938 39.171875 1.171875 36.578125 1.171875 C 30.609375 1.171875 24.953125 -0.289062 19.609375 -3.21875 C 14.265625 -6.15625 9.957031 -10.191406 6.6875 -15.328125 C 3.425781 -20.460938 1.796875 -26.015625 1.796875 -31.984375 C 1.796875 -36.492188 2.753906 -40.820312 4.671875 -44.96875 C 6.585938 -49.125 9.140625 -52.679688 12.328125 -55.640625 C 15.523438 -58.597656 19.25 -60.957031 23.5 -62.71875 C 27.75 -64.476562 32.109375 -65.359375 36.578125 -65.359375 C 40.722656 -65.359375 44.546875 -64.863281 48.046875 -63.875 C 51.546875 -62.894531 54.023438 -61.910156 55.484375 -60.921875 L 57.65625 -59.453125 L 51.4375 -47 C 51.070312 -47.3125 50.523438 -47.6875 49.796875 -48.125 C 49.066406 -48.5625 47.613281 -49.144531 45.4375 -49.875 C 43.257812 -50.601562 41.054688 -50.96875 38.828125 -50.96875 C 35.296875 -50.96875 32.128906 -50.394531 29.328125 -49.25 C 26.535156 -48.113281 24.320312 -46.609375 22.6875 -44.734375 C 21.050781 -42.867188 19.800781 -40.859375 18.9375 -38.703125 C 18.082031 -36.554688 17.65625 -34.367188 17.65625 -32.140625 C 17.65625 -27.265625 19.484375 -22.894531 23.140625 -19.03125 C 26.804688 -15.164062 32.035156 -13.234375 38.828125 -13.234375 Z M 38.828125 -13.234375 "/></g></g><g style="fill:#000000;fill-opacity:1;"><g transform="translate(57.552411, 70.850682)"><path style="stroke:none" d="M 4.671875 0 L 4.671875 -66.921875 L 18.4375 -66.921875 L 18.4375 -35.71875 L 18.59375 -35.71875 C 22.175781 -39.289062 25.988281 -41.078125 30.03125 -41.078125 C 32.007812 -41.078125 33.96875 -40.816406 35.90625 -40.296875 C 37.851562 -39.785156 39.722656 -38.984375 41.515625 -37.890625 C 43.304688 -36.804688 44.757812 -35.265625 45.875 -33.265625 C 46.988281 -31.265625 47.546875 -28.941406 47.546875 -26.296875 L 47.546875 0 L 33.765625 0 L 33.765625 -22.5625 C 33.765625 -24.632812 33.101562 -26.445312 31.78125 -28 C 30.457031 -29.5625 28.734375 -30.34375 26.609375 -30.34375 C 24.535156 -30.34375 22.65625 -29.535156 20.96875 -27.921875 C 19.28125 -26.316406 18.4375 -24.53125 18.4375 -22.5625 L 18.4375 0 Z M 4.671875 0 "/></g></g><g style="fill:#000000;fill-opacity:1;"><g transform="translate(107.027213, 70.850682)"><path style="stroke:none" d="M 7.390625 -4.9375 C 3.660156 -9.007812 1.796875 -14.003906 1.796875 -19.921875 C 1.796875 -25.835938 3.660156 -30.84375 7.390625 -34.9375 C 11.128906 -39.03125 15.875 -41.078125 21.625 -41.078125 C 26.914062 -41.078125 31.273438 -39.421875 34.703125 -36.109375 L 34.703125 -39.921875 L 48.484375 -39.921875 L 48.484375 0 L 34.859375 0 L 34.859375 -4.515625 L 34.703125 -4.515625 C 31.273438 -0.722656 26.914062 1.171875 21.625 1.171875 C 15.875 1.171875 11.128906 -0.863281 7.390625 -4.9375 Z M 19.09375 -26.6875 C 17.3125 -24.925781 16.421875 -22.671875 16.421875 -19.921875 C 16.421875 -17.171875 17.273438 -14.925781 18.984375 -13.1875 C 20.691406 -11.445312 22.945312 -10.578125 25.75 -10.578125 C 28.445312 -10.578125 30.664062 -11.457031 32.40625 -13.21875 C 34.144531 -14.988281 35.015625 -17.222656 35.015625 -19.921875 C 35.015625 -22.671875 34.117188 -24.925781 32.328125 -26.6875 C 30.535156 -28.445312 28.34375 -29.328125 25.75 -29.328125 C 23.101562 -29.328125 20.882812 -28.445312 19.09375 -26.6875 Z M 19.09375 -26.6875 "/></g></g><g style="fill:#000000;fill-opacity:1;"><g transform="translate(158.213404, 70.850682)"><path style="stroke:none" d="M 4.671875 0 L 4.671875 -39.921875 L 18.4375 -39.921875 L 18.4375 -34.15625 L 18.59375 -34.15625 C 18.695312 -34.363281 18.863281 -34.625 19.09375 -34.9375 C 19.332031 -35.25 19.835938 -35.789062 20.609375 -36.5625 C 21.390625 -37.34375 22.222656 -38.046875 23.109375 -38.671875 C 23.992188 -39.296875 25.132812 -39.851562 26.53125 -40.34375 C 27.9375 -40.832031 29.363281 -41.078125 30.8125 -41.078125 C 32.3125 -41.078125 33.785156 -40.867188 35.234375 -40.453125 C 36.691406 -40.046875 37.757812 -39.632812 38.4375 -39.21875 L 39.53125 -38.59375 L 33.765625 -26.921875 C 32.054688 -28.378906 29.671875 -29.109375 26.609375 -29.109375 C 24.953125 -29.109375 23.523438 -28.742188 22.328125 -28.015625 C 21.140625 -27.285156 20.296875 -26.398438 19.796875 -25.359375 C 19.304688 -24.328125 18.957031 -23.445312 18.75 -22.71875 C 18.539062 -21.988281 18.4375 -21.421875 18.4375 -21.015625 L 18.4375 0 Z M 4.671875 0 "/></g></g><g style="fill:#000000;fill-opacity:1;"><g transform="translate(195.008223, 70.850682)"><path style="stroke:none" d="M 7 -39.921875 L 7 -54.78125 L 20.78125 -54.78125 L 20.78125 -39.921875 L 29.171875 -39.921875 L 29.171875 -29.40625 L 20.78125 -29.40625 L 20.78125 -16.734375 C 20.78125 -13.046875 21.816406 -11.203125 23.890625 -11.203125 C 24.410156 -11.203125 24.953125 -11.304688 25.515625 -11.515625 C 26.085938 -11.722656 26.53125 -11.929688 26.84375 -12.140625 L 27.3125 -12.453125 L 30.734375 -1.328125 C 27.773438 0.335938 24.40625 1.171875 20.625 1.171875 C 18.03125 1.171875 15.796875 0.71875 13.921875 -0.1875 C 12.054688 -1.101562 10.644531 -2.320312 9.6875 -3.84375 C 8.726562 -5.375 8.039062 -6.984375 7.625 -8.671875 C 7.207031 -10.359375 7 -12.160156 7 -14.078125 L 7 -29.40625 L 1.25 -29.40625 L 1.25 -39.921875 Z M 7 -39.921875 "/></g></g><g style="fill:#cb6ce6;fill-opacity:1;"><g transform="translate(223.798475, 70.850682)"><path style="stroke:none" d="M 53.921875 0 L 43.65625 -36.03125 L 33.375 0 L 17.125 0 L -1.171875 -64.1875 L 15.09375 -64.1875 L 26.0625 -20.15625 L 26.453125 -20.15625 L 38.125 -64.1875 L 49.171875 -64.1875 L 60.84375 -20.15625 L 61.234375 -20.15625 L 72.203125 -64.1875 L 88.390625 -64.1875 L 70.109375 0 Z M 53.921875 0 "/></g></g><g style="fill:#cb6ce6;fill-opacity:1;"><g transform="translate(309.057248, 70.850682)"><path style="stroke:none" d="M 5.984375 -62.171875 C 7.597656 -63.773438 9.519531 -64.578125 11.75 -64.578125 C 13.976562 -64.578125 15.894531 -63.773438 17.5 -62.171875 C 19.113281 -60.566406 19.921875 -58.644531 19.921875 -56.40625 C 19.921875 -54.175781 19.113281 -52.257812 17.5 -50.65625 C 15.894531 -49.050781 13.976562 -48.25 11.75 -48.25 C 9.519531 -48.25 7.597656 -49.050781 5.984375 -50.65625 C 4.378906 -52.257812 3.578125 -54.175781 3.578125 -56.40625 C 3.578125 -58.644531 4.378906 -60.566406 5.984375 -62.171875 Z M 4.671875 -39.921875 L 4.671875 0 L 18.4375 0 L 18.4375 -39.921875 Z M 4.671875 -39.921875 "/></g></g><g style="fill:#cb6ce6;fill-opacity:1;"><g transform="translate(330.60499, 70.850682)"><path style="stroke:none" d="M 7 -39.921875 L 7 -54.78125 L 20.78125 -54.78125 L 20.78125 -39.921875 L 29.171875 -39.921875 L 29.171875 -29.40625 L 20.78125 -29.40625 L 20.78125 -16.734375 C 20.78125 -13.046875 21.816406 -11.203125 23.890625 -11.203125 C 24.410156 -11.203125 24.953125 -11.304688 25.515625 -11.515625 C 26.085938 -11.722656 26.53125 -11.929688 26.84375 -12.140625 L 27.3125 -12.453125 L 30.734375 -1.328125 C 27.773438 0.335938 24.40625 1.171875 20.625 1.171875 C 18.03125 1.171875 15.796875 0.71875 13.921875 -0.1875 C 12.054688 -1.101562 10.644531 -2.320312 9.6875 -3.84375 C 8.726562 -5.375 8.039062 -6.984375 7.625 -8.671875 C 7.207031 -10.359375 7 -12.160156 7 -14.078125 L 7 -29.40625 L 1.25 -29.40625 L 1.25 -39.921875 Z M 7 -39.921875 "/></g></g><g style="fill:#cb6ce6;fill-opacity:1;"><g transform="translate(359.387312, 70.850682)"><path style="stroke:none" d="M 25.90625 -29.796875 C 23.3125 -29.796875 21.082031 -28.835938 19.21875 -26.921875 C 17.351562 -25.003906 16.421875 -22.695312 16.421875 -20 C 16.421875 -17.25 17.351562 -14.910156 19.21875 -12.984375 C 21.082031 -11.066406 23.3125 -10.109375 25.90625 -10.109375 C 27.15625 -10.109375 28.335938 -10.265625 29.453125 -10.578125 C 30.566406 -10.890625 31.382812 -11.203125 31.90625 -11.515625 L 32.609375 -11.984375 L 37.265625 -2.40625 C 36.910156 -2.144531 36.40625 -1.820312 35.75 -1.4375 C 35.101562 -1.050781 33.625 -0.519531 31.3125 0.15625 C 29.007812 0.832031 26.535156 1.171875 23.890625 1.171875 C 18.023438 1.171875 12.875 -0.890625 8.4375 -5.015625 C 4.007812 -9.140625 1.796875 -14.082031 1.796875 -19.84375 C 1.796875 -25.65625 4.007812 -30.644531 8.4375 -34.8125 C 12.875 -38.988281 18.023438 -41.078125 23.890625 -41.078125 C 26.535156 -41.078125 28.972656 -40.765625 31.203125 -40.140625 C 33.429688 -39.523438 35.015625 -38.90625 35.953125 -38.28125 L 37.265625 -37.34375 L 32.609375 -27.9375 C 30.890625 -29.175781 28.65625 -29.796875 25.90625 -29.796875 Z M 25.90625 -29.796875 "/></g></g><g style="fill:#cb6ce6;fill-opacity:1;"><g transform="translate(395.637583, 70.850682)"><path style="stroke:none" d="M 4.671875 0 L 4.671875 -66.921875 L 18.4375 -66.921875 L 18.4375 -35.71875 L 18.59375 -35.71875 C 22.175781 -39.289062 25.988281 -41.078125 30.03125 -41.078125 C 32.007812 -41.078125 33.96875 -40.816406 35.90625 -40.296875 C 37.851562 -39.785156 39.722656 -38.984375 41.515625 -37.890625 C 43.304688 -36.804688 44.757812 -35.265625 45.875 -33.265625 C 46.988281 -31.265625 47.546875 -28.941406 47.546875 -26.296875 L 47.546875 0 L 33.765625 0 L 33.765625 -22.5625 C 33.765625 -24.632812 33.101562 -26.445312 31.78125 -28 C 30.457031 -29.5625 28.734375 -30.34375 26.609375 -30.34375 C 24.535156 -30.34375 22.65625 -29.535156 20.96875 -27.921875 C 19.28125 -26.316406 18.4375 -24.53125 18.4375 -22.5625 L 18.4375 0 Z M 4.671875 0 "/></g></g></g></g><g clip-rule="nonzero" clip-path="url(#169578c5a9)"><g transform="matrix(1,0,0,1,49,132)"><g clip-path="url(#78b714740b)"><g clip-rule="nonzero" clip-path="url(#5105b419eb)"><path style=" stroke:none;fill-rule:nonzero;fill:#4a4a4a;fill-opacity:1;" d="M 26.378906 44.488281 C 24.417969 41.351562 22.542969 38.164062 20.75 34.925781 C 15.253906 36.476562 9.695312 38.023438 4.136719 39.574219 C 10.167969 28.992188 16.203125 18.410156 22.230469 7.828125 C 24.09375 4.5625 26.46875 0.933594 30.203125 0.445312 C 32.457031 0.152344 34.667969 1.121094 36.710938 2.113281 C 45.589844 6.410156 54.046875 11.578125 61.769531 17.554688 C 72.535156 12.804688 95.625 4.769531 98.53125 10.152344 C 101.4375 15.53125 36.890625 51.726562 3.75 63.132812 C 0.597656 64.214844 -0.0546875 61.871094 0.796875 60.371094 C 3.867188 54.957031 17.46875 44.75 24.511719 41.097656 "/></g><path style=" stroke:none;fill-rule:nonzero;fill:#cb6ce6;fill-opacity:1;" d="M 61.5625 17.4375 C 59.335938 15.683594 58.558594 15.183594 56.675781 13.847656 C 47.070312 24.136719 35.546875 33.3125 23.105469 39.082031 C 23.574219 39.902344 24.433594 41.359375 26.078125 44.023438 C 29.855469 42.121094 41.03125 35.867188 44.394531 33.410156 C 48.886719 30.117188 59.59375 22.605469 61.5625 17.4375 Z M 61.5625 17.4375 "/></g></g></g><g clip-rule="nonzero" clip-path="url(#6e1ff9fbe3)"><g clip-rule="nonzero" clip-path="url(#3f0937ba7d)"><g clip-rule="nonzero" clip-path="url(#1eb3f48ba5)"><path style=" stroke:none;fill-rule:nonzero;fill:#000000;fill-opacity:1;" d="M 387.855469 170.265625 C 387.261719 172.152344 385.257812 173.191406 383.371094 172.59375 L 370.757812 168.605469 C 368.867188 168.023438 367.832031 166.007812 368.425781 164.121094 C 369.023438 162.234375 371.027344 161.195312 372.910156 161.792969 L 385.515625 165.777344 C 387.414062 166.375 388.453125 168.378906 387.855469 170.265625 Z M 387.855469 170.265625 "/></g></g></g><g transform="matrix(1,0,0,1,98,239)"><g clip-path="url(#fd3c4b40f3)"><g style="fill:#4a4a4a;fill-opacity:1;"><g transform="translate(1.480827, 28.511793)"><path style="stroke:none" d="M 16.03125 -5.46875 C 16.957031 -5.46875 17.851562 -5.601562 18.71875 -5.875 C 19.59375 -6.15625 20.234375 -6.425781 20.640625 -6.6875 L 21.25 -7.109375 L 23.8125 -1.953125 C 23.726562 -1.890625 23.609375 -1.804688 23.453125 -1.703125 C 23.304688 -1.597656 22.957031 -1.398438 22.40625 -1.109375 C 21.863281 -0.816406 21.28125 -0.5625 20.65625 -0.34375 C 20.039062 -0.132812 19.226562 0.0507812 18.21875 0.21875 C 17.21875 0.394531 16.179688 0.484375 15.109375 0.484375 C 12.640625 0.484375 10.300781 -0.117188 8.09375 -1.328125 C 5.882812 -2.546875 4.101562 -4.210938 2.75 -6.328125 C 1.40625 -8.453125 0.734375 -10.742188 0.734375 -13.203125 C 0.734375 -15.066406 1.128906 -16.859375 1.921875 -18.578125 C 2.722656 -20.296875 3.78125 -21.765625 5.09375 -22.984375 C 6.414062 -24.203125 7.953125 -25.175781 9.703125 -25.90625 C 11.460938 -26.632812 13.265625 -27 15.109375 -27 C 16.816406 -27 18.394531 -26.796875 19.84375 -26.390625 C 21.289062 -25.984375 22.316406 -25.578125 22.921875 -25.171875 L 23.8125 -24.5625 L 21.25 -19.40625 C 21.09375 -19.539062 20.863281 -19.695312 20.5625 -19.875 C 20.269531 -20.0625 19.671875 -20.300781 18.765625 -20.59375 C 17.867188 -20.894531 16.957031 -21.046875 16.03125 -21.046875 C 14.582031 -21.046875 13.273438 -20.8125 12.109375 -20.34375 C 10.953125 -19.875 10.035156 -19.253906 9.359375 -18.484375 C 8.691406 -17.710938 8.179688 -16.878906 7.828125 -15.984375 C 7.472656 -15.097656 7.296875 -14.195312 7.296875 -13.28125 C 7.296875 -11.257812 8.050781 -9.453125 9.5625 -7.859375 C 11.070312 -6.265625 13.226562 -5.46875 16.03125 -5.46875 Z M 16.03125 -5.46875 "/></g></g><g style="fill:#4a4a4a;fill-opacity:1;"><g transform="translate(25.670604, 28.511793)"><path style="stroke:none" d="M 3.484375 -1.953125 C 1.648438 -3.585938 0.734375 -5.675781 0.734375 -8.21875 C 0.734375 -10.769531 1.6875 -12.863281 3.59375 -14.5 C 5.5 -16.144531 7.859375 -16.96875 10.671875 -16.96875 C 13.429688 -16.96875 15.757812 -16.140625 17.65625 -14.484375 C 19.550781 -12.835938 20.5 -10.75 20.5 -8.21875 C 20.5 -5.695312 19.570312 -3.613281 17.71875 -1.96875 C 15.875 -0.332031 13.523438 0.484375 10.671875 0.484375 C 7.710938 0.484375 5.316406 -0.328125 3.484375 -1.953125 Z M 7.890625 -11.015625 C 7.148438 -10.296875 6.78125 -9.367188 6.78125 -8.234375 C 6.78125 -7.097656 7.132812 -6.171875 7.84375 -5.453125 C 8.550781 -4.734375 9.484375 -4.375 10.640625 -4.375 C 11.753906 -4.375 12.671875 -4.738281 13.390625 -5.46875 C 14.109375 -6.195312 14.46875 -7.117188 14.46875 -8.234375 C 14.46875 -9.367188 14.097656 -10.296875 13.359375 -11.015625 C 12.617188 -11.742188 11.710938 -12.109375 10.640625 -12.109375 C 9.546875 -12.109375 8.628906 -11.742188 7.890625 -11.015625 Z M 7.890625 -11.015625 "/></g></g><g style="fill:#4a4a4a;fill-opacity:1;"><g transform="translate(46.840676, 28.511793)"><path style="stroke:none" d="M 18.890625 -14.4375 C 20.441406 -12.757812 21.21875 -10.695312 21.21875 -8.25 C 21.21875 -5.8125 20.441406 -3.742188 18.890625 -2.046875 C 17.347656 -0.359375 15.390625 0.484375 13.015625 0.484375 C 10.828125 0.484375 9.03125 -0.203125 7.625 -1.578125 L 7.625 8.359375 L 1.921875 8.359375 L 1.921875 -16.484375 L 7.546875 -16.484375 L 7.546875 -14.625 L 7.625 -14.625 C 9.03125 -16.1875 10.828125 -16.96875 13.015625 -16.96875 C 15.390625 -16.96875 17.347656 -16.125 18.890625 -14.4375 Z M 14.0625 -5.46875 C 14.800781 -6.195312 15.171875 -7.128906 15.171875 -8.265625 C 15.171875 -9.398438 14.816406 -10.320312 14.109375 -11.03125 C 13.398438 -11.75 12.46875 -12.109375 11.3125 -12.109375 C 10.195312 -12.109375 9.28125 -11.742188 8.5625 -11.015625 C 7.84375 -10.296875 7.484375 -9.378906 7.484375 -8.265625 C 7.484375 -7.128906 7.851562 -6.195312 8.59375 -5.46875 C 9.332031 -4.738281 10.238281 -4.375 11.3125 -4.375 C 12.40625 -4.375 13.320312 -4.738281 14.0625 -5.46875 Z M 14.0625 -5.46875 "/></g></g><g style="fill:#4a4a4a;fill-opacity:1;"><g transform="translate(68.781735, 28.511793)"><path style="stroke:none" d="M 14.4375 -16.484375 L 20.984375 -16.484375 L 8.03125 8.359375 L 1.484375 8.359375 L 7.171875 -2.578125 L -0.640625 -16.484375 L 5.90625 -16.484375 L 10.515625 -8.03125 Z M 14.4375 -16.484375 "/></g></g><g style="fill:#4a4a4a;fill-opacity:1;"><g transform="translate(89.116578, 28.511793)"><path style="stroke:none" d="M 1.921875 -11.765625 L 12.28125 -11.765625 L 12.28125 -6.84375 L 1.921875 -6.84375 Z M 1.921875 -11.765625 "/></g></g><g style="fill:#4a4a4a;fill-opacity:1;"><g transform="translate(103.315629, 28.511793)"><path style="stroke:none" d="M 1.921875 -26.515625 L 11.609375 -26.515625 C 14.304688 -26.515625 16.488281 -25.816406 18.15625 -24.421875 C 19.832031 -23.035156 20.671875 -21.007812 20.671875 -18.34375 C 20.671875 -15.6875 19.820312 -13.601562 18.125 -12.09375 C 16.4375 -10.582031 14.265625 -9.828125 11.609375 -9.828125 L 7.96875 -9.828125 L 7.96875 0 L 1.921875 0 Z M 7.96875 -14.65625 L 9.671875 -14.65625 C 11.023438 -14.65625 12.132812 -14.925781 13 -15.46875 C 13.863281 -16.019531 14.296875 -16.914062 14.296875 -18.15625 C 14.296875 -19.425781 13.863281 -20.332031 13 -20.875 C 12.132812 -21.414062 11.023438 -21.6875 9.671875 -21.6875 L 7.96875 -21.6875 Z M 7.96875 -14.65625 "/></g></g><g style="fill:#4a4a4a;fill-opacity:1;"><g transform="translate(123.42522, 28.511793)"><path style="stroke:none" d="M 3.046875 -2.03125 C 1.503906 -3.71875 0.734375 -5.78125 0.734375 -8.21875 C 0.734375 -10.664062 1.503906 -12.734375 3.046875 -14.421875 C 4.597656 -16.117188 6.5625 -16.96875 8.9375 -16.96875 C 11.125 -16.96875 12.921875 -16.28125 14.328125 -14.90625 L 14.328125 -16.484375 L 20.03125 -16.484375 L 20.03125 0 L 14.40625 0 L 14.40625 -1.859375 L 14.328125 -1.859375 C 12.921875 -0.296875 11.125 0.484375 8.9375 0.484375 C 6.5625 0.484375 4.597656 -0.351562 3.046875 -2.03125 Z M 7.890625 -11.015625 C 7.148438 -10.296875 6.78125 -9.367188 6.78125 -8.234375 C 6.78125 -7.097656 7.132812 -6.171875 7.84375 -5.453125 C 8.550781 -4.734375 9.484375 -4.375 10.640625 -4.375 C 11.753906 -4.375 12.671875 -4.738281 13.390625 -5.46875 C 14.109375 -6.195312 14.46875 -7.117188 14.46875 -8.234375 C 14.46875 -9.367188 14.097656 -10.296875 13.359375 -11.015625 C 12.617188 -11.742188 11.710938 -12.109375 10.640625 -12.109375 C 9.546875 -12.109375 8.628906 -11.742188 7.890625 -11.015625 Z M 7.890625 -11.015625 "/></g></g><g style="fill:#4a4a4a;fill-opacity:1;"><g transform="translate(145.237734, 28.511793)"><path style="stroke:none" d="M 9.09375 -16.96875 C 10.039062 -16.96875 10.972656 -16.859375 11.890625 -16.640625 C 12.816406 -16.429688 13.503906 -16.21875 13.953125 -16 L 14.625 -15.6875 L 12.765625 -11.953125 C 11.472656 -12.640625 10.25 -12.984375 9.09375 -12.984375 C 8.445312 -12.984375 7.988281 -12.910156 7.71875 -12.765625 C 7.457031 -12.628906 7.328125 -12.367188 7.328125 -11.984375 C 7.328125 -11.898438 7.335938 -11.816406 7.359375 -11.734375 C 7.378906 -11.648438 7.421875 -11.566406 7.484375 -11.484375 C 7.546875 -11.410156 7.601562 -11.347656 7.65625 -11.296875 C 7.71875 -11.242188 7.8125 -11.1875 7.9375 -11.125 C 8.0625 -11.0625 8.160156 -11.007812 8.234375 -10.96875 C 8.316406 -10.9375 8.441406 -10.890625 8.609375 -10.828125 C 8.785156 -10.765625 8.914062 -10.71875 9 -10.6875 C 9.082031 -10.65625 9.222656 -10.609375 9.421875 -10.546875 C 9.628906 -10.484375 9.789062 -10.4375 9.90625 -10.40625 C 10.5625 -10.21875 11.132812 -10.003906 11.625 -9.765625 C 12.125 -9.535156 12.644531 -9.21875 13.1875 -8.8125 C 13.738281 -8.40625 14.160156 -7.890625 14.453125 -7.265625 C 14.753906 -6.640625 14.90625 -5.929688 14.90625 -5.140625 C 14.90625 -1.390625 12.304688 0.484375 7.109375 0.484375 C 5.921875 0.484375 4.796875 0.300781 3.734375 -0.0625 C 2.679688 -0.425781 1.921875 -0.789062 1.453125 -1.15625 L 0.734375 -1.734375 L 3.046875 -5.625 C 3.222656 -5.476562 3.445312 -5.300781 3.71875 -5.09375 C 4 -4.882812 4.503906 -4.601562 5.234375 -4.25 C 5.960938 -3.90625 6.597656 -3.734375 7.140625 -3.734375 C 8.316406 -3.734375 8.90625 -4.128906 8.90625 -4.921875 C 8.90625 -5.285156 8.753906 -5.566406 8.453125 -5.765625 C 8.148438 -5.972656 7.640625 -6.203125 6.921875 -6.453125 C 6.203125 -6.710938 5.640625 -6.953125 5.234375 -7.171875 C 4.210938 -7.703125 3.398438 -8.304688 2.796875 -8.984375 C 2.191406 -9.660156 1.890625 -10.554688 1.890625 -11.671875 C 1.890625 -13.335938 2.535156 -14.632812 3.828125 -15.5625 C 5.128906 -16.5 6.882812 -16.96875 9.09375 -16.96875 Z M 9.09375 -16.96875 "/></g></g><g style="fill:#4a4a4a;fill-opacity:1;"><g transform="translate(160.75381, 28.511793)"><path style="stroke:none" d="M 2.890625 -16.484375 L 2.890625 -22.625 L 8.578125 -22.625 L 8.578125 -16.484375 L 12.046875 -16.484375 L 12.046875 -12.15625 L 8.578125 -12.15625 L 8.578125 -6.90625 C 8.578125 -5.382812 9.007812 -4.625 9.875 -4.625 C 10.082031 -4.625 10.300781 -4.664062 10.53125 -4.75 C 10.769531 -4.84375 10.957031 -4.929688 11.09375 -5.015625 L 11.28125 -5.140625 L 12.703125 -0.546875 C 11.472656 0.140625 10.078125 0.484375 8.515625 0.484375 C 7.441406 0.484375 6.519531 0.296875 5.75 -0.078125 C 4.976562 -0.453125 4.394531 -0.957031 4 -1.59375 C 3.601562 -2.226562 3.316406 -2.890625 3.140625 -3.578125 C 2.972656 -4.273438 2.890625 -5.019531 2.890625 -5.8125 L 2.890625 -12.15625 L 0.515625 -12.15625 L 0.515625 -16.484375 Z M 2.890625 -16.484375 "/></g></g><g style="fill:#4a4a4a;fill-opacity:1;"><g transform="translate(173.443009, 28.511793)"><path style="stroke:none" d="M 18.609375 -7.453125 L 6.65625 -7.453125 C 6.65625 -6.296875 7.03125 -5.4375 7.78125 -4.875 C 8.53125 -4.320312 9.34375 -4.046875 10.21875 -4.046875 C 11.144531 -4.046875 11.875 -4.164062 12.40625 -4.40625 C 12.9375 -4.65625 13.546875 -5.144531 14.234375 -5.875 L 18.359375 -3.828125 C 16.640625 -0.953125 13.785156 0.484375 9.796875 0.484375 C 7.316406 0.484375 5.1875 -0.363281 3.40625 -2.0625 C 1.625 -3.769531 0.734375 -5.820312 0.734375 -8.21875 C 0.734375 -10.625 1.625 -12.679688 3.40625 -14.390625 C 5.1875 -16.109375 7.316406 -16.96875 9.796875 -16.96875 C 12.410156 -16.96875 14.535156 -16.210938 16.171875 -14.703125 C 17.816406 -13.191406 18.640625 -11.035156 18.640625 -8.234375 C 18.640625 -7.847656 18.628906 -7.585938 18.609375 -7.453125 Z M 6.8125 -10.609375 L 13.078125 -10.609375 C 12.953125 -11.460938 12.613281 -12.117188 12.0625 -12.578125 C 11.519531 -13.046875 10.820312 -13.28125 9.96875 -13.28125 C 9.019531 -13.28125 8.265625 -13.03125 7.703125 -12.53125 C 7.148438 -12.039062 6.851562 -11.398438 6.8125 -10.609375 Z M 6.8125 -10.609375 "/></g></g><g style="fill:#4a4a4a;fill-opacity:1;"><g transform="translate(192.814119, 28.511793)"><path style="stroke:none" d=""/></g></g><g style="fill:#4a4a4a;fill-opacity:1;"><g transform="translate(201.584122, 28.511793)"><path style="stroke:none" d="M 0.9375 -6.96875 C 0.9375 -7.757812 1.117188 -8.519531 1.484375 -9.25 C 1.847656 -9.976562 2.359375 -10.644531 3.015625 -11.25 C 3.679688 -11.851562 4.359375 -12.378906 5.046875 -12.828125 C 5.734375 -13.273438 6.515625 -13.734375 7.390625 -14.203125 C 5.609375 -16.429688 4.71875 -18.394531 4.71875 -20.09375 C 4.71875 -22.1875 5.453125 -23.859375 6.921875 -25.109375 C 8.390625 -26.367188 10.472656 -27 13.171875 -27 C 15.660156 -27 17.59375 -26.300781 18.96875 -24.90625 C 20.351562 -23.507812 21.046875 -21.90625 21.046875 -20.09375 C 21.046875 -19.34375 20.863281 -18.609375 20.5 -17.890625 C 20.132812 -17.171875 19.703125 -16.554688 19.203125 -16.046875 C 18.703125 -15.546875 18.191406 -15.101562 17.671875 -14.71875 C 17.160156 -14.332031 16.722656 -14.046875 16.359375 -13.859375 L 15.8125 -13.5625 L 19.34375 -9.90625 C 20.113281 -10.238281 21.410156 -11.347656 23.234375 -13.234375 L 26.96875 -9.578125 C 25.769531 -8.203125 24.515625 -6.992188 23.203125 -5.953125 L 28.921875 0 L 21.3125 0 L 18.671875 -2.734375 C 17.859375 -2.148438 17.257812 -1.734375 16.875 -1.484375 C 16.488281 -1.242188 15.914062 -0.929688 15.15625 -0.546875 C 14.394531 -0.160156 13.613281 0.101562 12.8125 0.25 C 12.007812 0.40625 11.125 0.484375 10.15625 0.484375 C 9.320312 0.484375 8.492188 0.410156 7.671875 0.265625 C 6.859375 0.128906 6.039062 -0.113281 5.21875 -0.46875 C 4.394531 -0.820312 3.671875 -1.265625 3.046875 -1.796875 C 2.429688 -2.335938 1.925781 -3.050781 1.53125 -3.9375 C 1.132812 -4.820312 0.9375 -5.832031 0.9375 -6.96875 Z M 13.171875 -22.71875 C 12.398438 -22.71875 11.820312 -22.472656 11.4375 -21.984375 C 11.050781 -21.492188 10.859375 -20.863281 10.859375 -20.09375 C 10.859375 -19.632812 11.019531 -19.132812 11.34375 -18.59375 C 11.664062 -18.050781 11.988281 -17.617188 12.3125 -17.296875 L 12.796875 -16.84375 C 14.765625 -17.914062 15.75 -19 15.75 -20.09375 C 15.75 -21.84375 14.890625 -22.71875 13.171875 -22.71875 Z M 14.75 -6.75 L 10.546875 -10.890625 C 10.484375 -10.867188 10.382812 -10.832031 10.25 -10.78125 C 10.125 -10.726562 9.898438 -10.597656 9.578125 -10.390625 C 9.253906 -10.191406 8.972656 -9.96875 8.734375 -9.71875 C 8.503906 -9.476562 8.285156 -9.148438 8.078125 -8.734375 C 7.878906 -8.328125 7.78125 -7.898438 7.78125 -7.453125 C 7.78125 -6.742188 8.078125 -6.195312 8.671875 -5.8125 C 9.273438 -5.425781 9.972656 -5.234375 10.765625 -5.234375 C 11.410156 -5.234375 12.0625 -5.359375 12.71875 -5.609375 C 13.382812 -5.859375 13.890625 -6.109375 14.234375 -6.359375 Z M 14.75 -6.75 "/></g></g><g style="fill:#4a4a4a;fill-opacity:1;"><g transform="translate(228.343868, 28.511793)"><path style="stroke:none" d=""/></g></g><g style="fill:#4a4a4a;fill-opacity:1;"><g transform="translate(237.113871, 28.511793)"><path style="stroke:none" d="M 15.390625 -26.515625 L 26.09375 0 L 19.609375 0 L 17.640625 -5.296875 L 7.546875 -5.296875 L 5.59375 0 L -0.90625 0 L 9.796875 -26.515625 Z M 15.59375 -10.609375 L 12.625 -18.3125 L 12.5625 -18.3125 L 9.609375 -10.609375 Z M 15.59375 -10.609375 "/></g></g><g style="fill:#4a4a4a;fill-opacity:1;"><g transform="translate(262.299522, 28.511793)"><path style="stroke:none" d="M 7.296875 -16.484375 L 7.296875 -8.640625 C 7.296875 -7.015625 7.539062 -5.859375 8.03125 -5.171875 C 8.53125 -4.484375 9.367188 -4.140625 10.546875 -4.140625 C 11.722656 -4.140625 12.554688 -4.484375 13.046875 -5.171875 C 13.535156 -5.859375 13.78125 -7.015625 13.78125 -8.640625 L 13.78125 -16.484375 L 19.484375 -16.484375 L 19.484375 -7.265625 C 19.484375 -4.523438 18.769531 -2.546875 17.34375 -1.328125 C 15.914062 -0.117188 13.644531 0.484375 10.53125 0.484375 C 7.425781 0.484375 5.160156 -0.117188 3.734375 -1.328125 C 2.316406 -2.546875 1.609375 -4.523438 1.609375 -7.265625 L 1.609375 -16.484375 Z M 7.296875 -16.484375 "/></g></g><g style="fill:#4a4a4a;fill-opacity:1;"><g transform="translate(283.212565, 28.511793)"><path style="stroke:none" d="M 2.890625 -16.484375 L 2.890625 -22.625 L 8.578125 -22.625 L 8.578125 -16.484375 L 12.046875 -16.484375 L 12.046875 -12.15625 L 8.578125 -12.15625 L 8.578125 -6.90625 C 8.578125 -5.382812 9.007812 -4.625 9.875 -4.625 C 10.082031 -4.625 10.300781 -4.664062 10.53125 -4.75 C 10.769531 -4.84375 10.957031 -4.929688 11.09375 -5.015625 L 11.28125 -5.140625 L 12.703125 -0.546875 C 11.472656 0.140625 10.078125 0.484375 8.515625 0.484375 C 7.441406 0.484375 6.519531 0.296875 5.75 -0.078125 C 4.976562 -0.453125 4.394531 -0.957031 4 -1.59375 C 3.601562 -2.226562 3.316406 -2.890625 3.140625 -3.578125 C 2.972656 -4.273438 2.890625 -5.019531 2.890625 -5.8125 L 2.890625 -12.15625 L 0.515625 -12.15625 L 0.515625 -16.484375 Z M 2.890625 -16.484375 "/></g></g><g style="fill:#4a4a4a;fill-opacity:1;"><g transform="translate(295.901764, 28.511793)"><path style="stroke:none" d="M 3.484375 -1.953125 C 1.648438 -3.585938 0.734375 -5.675781 0.734375 -8.21875 C 0.734375 -10.769531 1.6875 -12.863281 3.59375 -14.5 C 5.5 -16.144531 7.859375 -16.96875 10.671875 -16.96875 C 13.429688 -16.96875 15.757812 -16.140625 17.65625 -14.484375 C 19.550781 -12.835938 20.5 -10.75 20.5 -8.21875 C 20.5 -5.695312 19.570312 -3.613281 17.71875 -1.96875 C 15.875 -0.332031 13.523438 0.484375 10.671875 0.484375 C 7.710938 0.484375 5.316406 -0.328125 3.484375 -1.953125 Z M 7.890625 -11.015625 C 7.148438 -10.296875 6.78125 -9.367188 6.78125 -8.234375 C 6.78125 -7.097656 7.132812 -6.171875 7.84375 -5.453125 C 8.550781 -4.734375 9.484375 -4.375 10.640625 -4.375 C 11.753906 -4.375 12.671875 -4.738281 13.390625 -5.46875 C 14.109375 -6.195312 14.46875 -7.117188 14.46875 -8.234375 C 14.46875 -9.367188 14.097656 -10.296875 13.359375 -11.015625 C 12.617188 -11.742188 11.710938 -12.109375 10.640625 -12.109375 C 9.546875 -12.109375 8.628906 -11.742188 7.890625 -11.015625 Z M 7.890625 -11.015625 "/></g></g><g style="fill:#4a4a4a;fill-opacity:1;"><g transform="translate(317.071836, 28.511793)"><path style="stroke:none" d="M 1.921875 0 L 1.921875 -16.484375 L 7.625 -16.484375 L 7.625 -14.75 L 7.6875 -14.75 C 9.164062 -16.226562 10.738281 -16.96875 12.40625 -16.96875 C 13.601562 -16.96875 14.726562 -16.71875 15.78125 -16.21875 C 16.832031 -15.726562 17.625 -14.972656 18.15625 -13.953125 C 19.832031 -15.960938 21.65625 -16.96875 23.625 -16.96875 C 25.382812 -16.96875 26.894531 -16.472656 28.15625 -15.484375 C 29.414062 -14.503906 30.046875 -12.960938 30.046875 -10.859375 L 30.046875 0 L 24.359375 0 L 24.359375 -9.328125 C 24.359375 -10.203125 24.117188 -10.929688 23.640625 -11.515625 C 23.160156 -12.109375 22.4375 -12.40625 21.46875 -12.40625 C 20.632812 -12.40625 20 -12.148438 19.5625 -11.640625 C 19.125 -11.140625 18.878906 -10.535156 18.828125 -9.828125 L 18.828125 0 L 13.140625 0 L 13.140625 -9.328125 C 13.140625 -10.203125 12.898438 -10.929688 12.421875 -11.515625 C 11.941406 -12.109375 11.21875 -12.40625 10.25 -12.40625 C 9.375 -12.40625 8.71875 -12.128906 8.28125 -11.578125 C 7.84375 -11.035156 7.625 -10.390625 7.625 -9.640625 L 7.625 0 Z M 1.921875 0 "/></g></g><g style="fill:#4a4a4a;fill-opacity:1;"><g transform="translate(348.714511, 28.511793)"><path style="stroke:none" d="M 3.046875 -2.03125 C 1.503906 -3.71875 0.734375 -5.78125 0.734375 -8.21875 C 0.734375 -10.664062 1.503906 -12.734375 3.046875 -14.421875 C 4.597656 -16.117188 6.5625 -16.96875 8.9375 -16.96875 C 11.125 -16.96875 12.921875 -16.28125 14.328125 -14.90625 L 14.328125 -16.484375 L 20.03125 -16.484375 L 20.03125 0 L 14.40625 0 L 14.40625 -1.859375 L 14.328125 -1.859375 C 12.921875 -0.296875 11.125 0.484375 8.9375 0.484375 C 6.5625 0.484375 4.597656 -0.351562 3.046875 -2.03125 Z M 7.890625 -11.015625 C 7.148438 -10.296875 6.78125 -9.367188 6.78125 -8.234375 C 6.78125 -7.097656 7.132812 -6.171875 7.84375 -5.453125 C 8.550781 -4.734375 9.484375 -4.375 10.640625 -4.375 C 11.753906 -4.375 12.671875 -4.738281 13.390625 -5.46875 C 14.109375 -6.195312 14.46875 -7.117188 14.46875 -8.234375 C 14.46875 -9.367188 14.097656 -10.296875 13.359375 -11.015625 C 12.617188 -11.742188 11.710938 -12.109375 10.640625 -12.109375 C 9.546875 -12.109375 8.628906 -11.742188 7.890625 -11.015625 Z M 7.890625 -11.015625 "/></g></g><g style="fill:#4a4a4a;fill-opacity:1;"><g transform="translate(370.430621, 28.511793)"><path style="stroke:none" d="M 2.890625 -16.484375 L 2.890625 -22.625 L 8.578125 -22.625 L 8.578125 -16.484375 L 12.046875 -16.484375 L 12.046875 -12.15625 L 8.578125 -12.15625 L 8.578125 -6.90625 C 8.578125 -5.382812 9.007812 -4.625 9.875 -4.625 C 10.082031 -4.625 10.300781 -4.664062 10.53125 -4.75 C 10.769531 -4.84375 10.957031 -4.929688 11.09375 -5.015625 L 11.28125 -5.140625 L 12.703125 -0.546875 C 11.472656 0.140625 10.078125 0.484375 8.515625 0.484375 C 7.441406 0.484375 6.519531 0.296875 5.75 -0.078125 C 4.976562 -0.453125 4.394531 -0.957031 4 -1.59375 C 3.601562 -2.226562 3.316406 -2.890625 3.140625 -3.578125 C 2.972656 -4.273438 2.890625 -5.019531 2.890625 -5.8125 L 2.890625 -12.15625 L 0.515625 -12.15625 L 0.515625 -16.484375 Z M 2.890625 -16.484375 "/></g></g><g style="fill:#4a4a4a;fill-opacity:1;"><g transform="translate(383.119861, 28.511793)"><path style="stroke:none" d="M 18.609375 -7.453125 L 6.65625 -7.453125 C 6.65625 -6.296875 7.03125 -5.4375 7.78125 -4.875 C 8.53125 -4.320312 9.34375 -4.046875 10.21875 -4.046875 C 11.144531 -4.046875 11.875 -4.164062 12.40625 -4.40625 C 12.9375 -4.65625 13.546875 -5.144531 14.234375 -5.875 L 18.359375 -3.828125 C 16.640625 -0.953125 13.785156 0.484375 9.796875 0.484375 C 7.316406 0.484375 5.1875 -0.363281 3.40625 -2.0625 C 1.625 -3.769531 0.734375 -5.820312 0.734375 -8.21875 C 0.734375 -10.625 1.625 -12.679688 3.40625 -14.390625 C 5.1875 -16.109375 7.316406 -16.96875 9.796875 -16.96875 C 12.410156 -16.96875 14.535156 -16.210938 16.171875 -14.703125 C 17.816406 -13.191406 18.640625 -11.035156 18.640625 -8.234375 C 18.640625 -7.847656 18.628906 -7.585938 18.609375 -7.453125 Z M 6.8125 -10.609375 L 13.078125 -10.609375 C 12.953125 -11.460938 12.613281 -12.117188 12.0625 -12.578125 C 11.519531 -13.046875 10.820312 -13.28125 9.96875 -13.28125 C 9.019531 -13.28125 8.265625 -13.03125 7.703125 -12.53125 C 7.148438 -12.039062 6.851562 -11.398438 6.8125 -10.609375 Z M 6.8125 -10.609375 "/></g></g></g></g><g clip-rule="nonzero" clip-path="url(#2442ad6c45)"><g clip-rule="nonzero" clip-path="url(#f4a4865381)"><g clip-rule="nonzero" clip-path="url(#72419af9e2)"><path style=" stroke:none;fill-rule:nonzero;fill:#000000;fill-opacity:1;" d="M 390.949219 160.707031 C 390.355469 162.59375 388.351562 163.632812 386.464844 163.039062 L 373.851562 159.050781 C 371.960938 158.464844 370.921875 156.449219 371.519531 154.5625 C 372.117188 152.679688 374.117188 151.636719 376.003906 152.234375 L 388.609375 156.21875 C 390.507812 156.820312 391.546875 158.824219 390.949219 160.707031 Z M 390.949219 160.707031 "/></g></g></g><g transform="matrix(1,0,0,1,417,108)"><g clip-path="url(#a4301c86bd)"><g clip-rule="nonzero" clip-path="url(#5fe13cb35c)"><path style=" stroke:none;fill-rule:evenodd;fill:#4a4a4a;fill-opacity:1;" d="M 55.046875 4.640625 L 5.023438 4.640625 C 4.914062 4.640625 4.816406 4.691406 4.753906 4.765625 C 4.679688 4.839844 4.640625 4.9375 4.640625 5.035156 L 4.640625 36.910156 C 4.640625 37.019531 4.691406 37.121094 4.753906 37.183594 C 4.828125 37.257812 4.925781 37.304688 5.023438 37.304688 L 55.035156 37.304688 C 55.144531 37.304688 55.242188 37.257812 55.304688 37.183594 C 55.378906 37.109375 55.429688 37.007812 55.429688 36.910156 L 55.429688 5.035156 C 55.429688 4.925781 55.378906 4.828125 55.304688 4.765625 C 55.257812 4.691406 55.15625 4.640625 55.046875 4.640625 Z M 24.960938 43.636719 L 35.109375 43.636719 L 35.109375 47.265625 L 24.960938 47.265625 Z M 18.371094 49.984375 L 41.703125 49.984375 L 41.703125 53.613281 L 18.371094 53.613281 Z M 5.023438 1.011719 L 55.035156 1.011719 C 56.144531 1.011719 57.15625 1.46875 57.886719 2.195312 C 58.613281 2.925781 59.070312 3.9375 59.070312 5.046875 L 59.070312 36.921875 C 59.070312 38.035156 58.613281 39.046875 57.886719 39.773438 C 57.15625 40.503906 56.144531 40.960938 55.035156 40.960938 L 5.023438 40.960938 C 3.914062 40.960938 2.902344 40.503906 2.171875 39.773438 C 1.457031 39.035156 1 38.019531 1 36.910156 L 1 5.035156 C 1 3.925781 1.457031 2.914062 2.1875 2.183594 C 2.914062 1.46875 3.925781 1.011719 5.023438 1.011719 Z M 5.023438 1.011719 "/></g><g clip-rule="nonzero" clip-path="url(#3c6b2c53f4)"><path style=" stroke:none;fill-rule:nonzero;fill:#4a4a4a;fill-opacity:1;" d="M 23.066406 13.695312 L 23.066406 16.554688 C 23.066406 16.972656 22.730469 17.3125 22.308594 17.3125 L 17.597656 17.3125 L 17.597656 22.027344 C 17.597656 22.445312 17.257812 22.785156 16.839844 22.785156 L 13.980469 22.785156 C 13.5625 22.785156 13.222656 22.445312 13.222656 22.027344 L 13.222656 17.3125 L 8.511719 17.3125 C 8.089844 17.3125 7.753906 16.972656 7.753906 16.554688 L 7.753906 13.695312 C 7.753906 13.277344 8.089844 12.9375 8.511719 12.9375 L 13.222656 12.9375 L 13.222656 8.226562 C 13.222656 7.808594 13.5625 7.46875 13.980469 7.46875 L 16.839844 7.46875 C 17.257812 7.46875 17.597656 7.808594 17.597656 8.226562 L 17.597656 12.9375 L 22.308594 12.9375 C 22.730469 12.9375 23.066406 13.277344 23.066406 13.695312 "/></g><g clip-rule="nonzero" clip-path="url(#4890ad1608)"><path style=" stroke:none;fill-rule:nonzero;fill:#4a4a4a;fill-opacity:1;" d="M 50.230469 21.402344 L 30.757812 21.402344 C 29.988281 21.402344 29.367188 22.023438 29.367188 22.792969 C 29.367188 23.558594 29.988281 24.183594 30.757812 24.183594 L 50.230469 24.183594 C 50.996094 24.183594 51.621094 23.558594 51.621094 22.792969 C 51.621094 22.023438 50.996094 21.402344 50.230469 21.402344 Z M 50.230469 21.402344 "/></g><g clip-rule="nonzero" clip-path="url(#96dca0fe09)"><path style=" stroke:none;fill-rule:nonzero;fill:#4a4a4a;fill-opacity:1;" d="M 50.230469 27.890625 L 30.757812 27.890625 C 29.988281 27.890625 29.367188 28.515625 29.367188 29.28125 C 29.367188 30.050781 29.988281 30.671875 30.757812 30.671875 L 50.230469 30.671875 C 50.996094 30.671875 51.621094 30.050781 51.621094 29.28125 C 51.621094 28.515625 50.996094 27.890625 50.230469 27.890625 Z M 50.230469 27.890625 "/></g><g clip-rule="nonzero" clip-path="url(#045f180787)"><path style=" stroke:none;fill-rule:nonzero;fill:#4a4a4a;fill-opacity:1;" d="M 30.757812 17.691406 L 50.230469 17.691406 C 50.996094 17.691406 51.621094 17.070312 51.621094 16.300781 C 51.621094 15.53125 50.996094 14.910156 50.230469 14.910156 L 30.757812 14.910156 C 29.988281 14.910156 29.367188 15.53125 29.367188 16.300781 C 29.367188 17.070312 29.988281 17.691406 30.757812 17.691406 Z M 30.757812 17.691406 "/></g></g></g></g></svg>